<svg width="18" height="18" viewBox="0 0 18 18" fill="none" xmlns="http://www.w3.org/2000/svg">
<path d="M14.6026 7.90495C14.2472 7.11426 13.6709 6.44307 12.9431 5.97207C12.2153 5.50107 11.367 5.25032 10.5001 5.24995C10.1484 5.25279 9.79839 5.29812 9.4576 5.38495C9.03069 4.78236 8.43538 4.31923 7.7463 4.05364C7.05722 3.78805 6.30507 3.73183 5.58417 3.89203C4.86327 4.05223 4.20572 4.42172 3.69398 4.95416C3.18224 5.48659 2.8391 6.15827 2.7076 6.88495C2.2169 7.06161 1.80281 7.40324 1.53613 7.85143C1.26945 8.29962 1.16675 8.82653 1.24559 9.34206C1.32442 9.8576 1.5799 10.3297 1.96833 10.6777C2.35677 11.0258 2.85403 11.228 3.3751 11.25H4.1251C4.11728 11.3748 4.11728 11.5001 4.1251 11.625C4.1251 12.3211 4.40166 12.9888 4.89394 13.4811C5.38622 13.9734 6.0539 14.25 6.7501 14.25H13.6276C14.4033 14.2498 15.1534 13.972 15.742 13.4668C16.3307 12.9616 16.719 12.2624 16.8368 11.4957C16.9547 10.729 16.7941 9.94541 16.3843 9.28678C15.9745 8.62816 15.3425 8.13798 14.6026 7.90495ZM3.3751 9.74995C3.17618 9.74995 2.98542 9.67093 2.84477 9.53028C2.70411 9.38963 2.6251 9.19886 2.6251 8.99995C2.6251 8.80104 2.70411 8.61027 2.84477 8.46962C2.98542 8.32897 3.17618 8.24995 3.3751 8.24995C3.57401 8.24995 3.76477 8.17093 3.90543 8.03028C4.04608 7.88963 4.1251 7.69886 4.1251 7.49995C4.1251 6.90321 4.36215 6.33092 4.78411 5.90896C5.20606 5.487 5.77836 5.24995 6.3751 5.24995C6.68963 5.25164 7.00032 5.31926 7.28711 5.44844C7.57389 5.57763 7.83041 5.7655 8.0401 5.99995C7.50784 6.34627 7.0549 6.80131 6.71106 7.33517C6.36722 7.86903 6.14026 8.46962 6.0451 9.09745C5.62117 9.21684 5.23423 9.44127 4.9201 9.74995H3.3751ZM13.6276 12.75H6.7501C6.45173 12.75 6.16558 12.6314 5.9546 12.4204C5.74362 12.2095 5.6251 11.9233 5.6251 11.625C5.6251 11.3266 5.74362 11.0404 5.9546 10.8295C6.16558 10.6185 6.45173 10.5 6.7501 10.5C6.94901 10.5 7.13977 10.4209 7.28043 10.2803C7.42108 10.1396 7.5001 9.94886 7.5001 9.74995C7.50331 9.04172 7.75699 8.35747 8.21622 7.8183C8.67546 7.27914 9.31064 6.91983 10.0093 6.80398C10.708 6.68813 11.4252 6.82321 12.0339 7.1853C12.6425 7.5474 13.1035 8.11316 13.3351 8.78245C13.378 8.91133 13.455 9.02615 13.5581 9.11465C13.6611 9.20315 13.7862 9.26201 13.9201 9.28495C14.3458 9.36454 14.7268 9.59937 14.9892 9.94391C15.2516 10.2884 15.3767 10.7181 15.3402 11.1497C15.3038 11.5812 15.1084 11.9839 14.792 12.2795C14.4756 12.5752 14.0606 12.7428 13.6276 12.75V12.75Z" fill="#FF7C7C"/>
</svg>
