<svg width="18" height="18" viewBox="0 0 18 18" fill="none" xmlns="http://www.w3.org/2000/svg">
<path d="M9.00002 14.25C8.8011 14.25 8.61034 14.3291 8.46969 14.4697C8.32903 14.6104 8.25002 14.8011 8.25002 15V15.75C8.25002 15.949 8.32903 16.1397 8.46969 16.2804C8.61034 16.421 8.8011 16.5 9.00002 16.5C9.19893 16.5 9.38969 16.421 9.53034 16.2804C9.671 16.1397 9.75002 15.949 9.75002 15.75V15C9.75002 14.8011 9.671 14.6104 9.53034 14.4697C9.38969 14.3291 9.19893 14.25 9.00002 14.25ZM6.00002 8.25004C5.8011 8.25004 5.61034 8.32906 5.46969 8.46971C5.32903 8.61037 5.25002 8.80113 5.25002 9.00004V9.75004C5.25002 9.94896 5.32903 10.1397 5.46969 10.2804C5.61034 10.421 5.8011 10.5 6.00002 10.5C6.19893 10.5 6.38969 10.421 6.53034 10.2804C6.671 10.1397 6.75002 9.94896 6.75002 9.75004V9.00004C6.75002 8.80113 6.671 8.61037 6.53034 8.46971C6.38969 8.32906 6.19893 8.25004 6.00002 8.25004V8.25004ZM6.00002 12C5.8011 12 5.61034 12.0791 5.46969 12.2197C5.32903 12.3604 5.25002 12.5511 5.25002 12.75V13.5C5.25002 13.699 5.32903 13.8897 5.46969 14.0304C5.61034 14.171 5.8011 14.25 6.00002 14.25C6.19893 14.25 6.38969 14.171 6.53034 14.0304C6.671 13.8897 6.75002 13.699 6.75002 13.5V12.75C6.75002 12.5511 6.671 12.3604 6.53034 12.2197C6.38969 12.0791 6.19893 12 6.00002 12V12ZM9.00002 10.5C8.8011 10.5 8.61034 10.5791 8.46969 10.7197C8.32903 10.8604 8.25002 11.0511 8.25002 11.25V12C8.25002 12.199 8.32903 12.3897 8.46969 12.5304C8.61034 12.671 8.8011 12.75 9.00002 12.75C9.19893 12.75 9.38969 12.671 9.53034 12.5304C9.671 12.3897 9.75002 12.199 9.75002 12V11.25C9.75002 11.0511 9.671 10.8604 9.53034 10.7197C9.38969 10.5791 9.19893 10.5 9.00002 10.5ZM13.815 4.66504C13.3568 3.61205 12.5659 2.73835 11.5636 2.17784C10.5613 1.61733 9.40281 1.40092 8.26574 1.56178C7.12867 1.72263 6.07571 2.25188 5.26821 3.06842C4.4607 3.88497 3.94321 4.94375 3.79501 6.08254C3.14058 6.24077 2.55839 6.61454 2.14211 7.14373C1.72584 7.67291 1.49968 8.32675 1.50001 9.00004C1.49868 9.42486 1.58758 9.84511 1.76083 10.233C1.93408 10.6209 2.18774 10.9675 2.50501 11.25C2.57803 11.3202 2.66449 11.3748 2.75919 11.4106C2.85388 11.4464 2.95485 11.4627 3.056 11.4585C3.15716 11.4542 3.25641 11.4296 3.34777 11.3859C3.43913 11.3423 3.52071 11.2806 3.58759 11.2046C3.65448 11.1286 3.70528 11.0398 3.73694 10.9437C3.7686 10.8475 3.78046 10.7459 3.77181 10.6451C3.76316 10.5442 3.73418 10.4461 3.68661 10.3567C3.63904 10.2674 3.57386 10.1886 3.49501 10.125C3.33774 9.98311 3.21232 9.80948 3.127 9.61557C3.04168 9.42166 2.9984 9.21188 3.00001 9.00004C3.00001 8.60222 3.15805 8.22069 3.43935 7.93938C3.72066 7.65808 4.10219 7.50004 4.50002 7.50004C4.69893 7.50004 4.88969 7.42103 5.03034 7.28037C5.171 7.13972 5.25002 6.94896 5.25002 6.75004C5.25193 5.863 5.56823 5.00536 6.14272 4.32948C6.7172 3.6536 7.51268 3.20326 8.38783 3.05845C9.26297 2.91364 10.1611 3.08375 10.9227 3.53855C11.6843 3.99335 12.26 4.7034 12.5475 5.54254C12.5904 5.67142 12.6675 5.78624 12.7705 5.87474C12.8735 5.96324 12.9986 6.02211 13.1325 6.04504C13.6531 6.13485 14.1256 6.40499 14.467 6.80814C14.8084 7.21129 14.9971 7.72174 15 8.25004C15.0115 8.80226 14.8132 9.33828 14.445 9.75004C14.3253 9.89915 14.267 10.0884 14.2821 10.279C14.2973 10.4696 14.3847 10.6473 14.5264 10.7756C14.6682 10.904 14.8536 10.9733 15.0448 10.9695C15.236 10.9657 15.4185 10.889 15.555 10.755C15.9681 10.283 16.2562 9.71479 16.3929 9.10255C16.5295 8.49031 16.5104 7.85357 16.3373 7.25062C16.1642 6.64767 15.8426 6.09779 15.4019 5.65132C14.9613 5.20485 14.4156 4.87605 13.815 4.69504V4.66504ZM12 8.25004C11.8011 8.25004 11.6103 8.32906 11.4697 8.46971C11.329 8.61037 11.25 8.80113 11.25 9.00004V9.75004C11.25 9.94896 11.329 10.1397 11.4697 10.2804C11.6103 10.421 11.8011 10.5 12 10.5C12.1989 10.5 12.3897 10.421 12.5303 10.2804C12.671 10.1397 12.75 9.94896 12.75 9.75004V9.00004C12.75 8.80113 12.671 8.61037 12.5303 8.46971C12.3897 8.32906 12.1989 8.25004 12 8.25004ZM12 12C11.8011 12 11.6103 12.0791 11.4697 12.2197C11.329 12.3604 11.25 12.5511 11.25 12.75V13.5C11.25 13.699 11.329 13.8897 11.4697 14.0304C11.6103 14.171 11.8011 14.25 12 14.25C12.1989 14.25 12.3897 14.171 12.5303 14.0304C12.671 13.8897 12.75 13.699 12.75 13.5V12.75C12.75 12.5511 12.671 12.3604 12.5303 12.2197C12.3897 12.0791 12.1989 12 12 12ZM9.00002 6.75004C8.8011 6.75004 8.61034 6.82906 8.46969 6.96971C8.32903 7.11037 8.25002 7.30113 8.25002 7.50004V8.25004C8.25002 8.44896 8.32903 8.63972 8.46969 8.78037C8.61034 8.92103 8.8011 9.00004 9.00002 9.00004C9.19893 9.00004 9.38969 8.92103 9.53034 8.78037C9.671 8.63972 9.75002 8.44896 9.75002 8.25004V7.50004C9.75002 7.30113 9.671 7.11037 9.53034 6.96971C9.38969 6.82906 9.19893 6.75004 9.00002 6.75004Z" fill="#FF7C7C"/>
</svg>
