<svg width="275" height="19" viewBox="0 0 275 19" fill="none" xmlns="http://www.w3.org/2000/svg">
<path d="M3 4L14.2083 11C21.0667 15.2833 29.7666 15.2833 36.625 11V11C43.4834 6.71669 52.1833 6.71669 59.0417 11V11C65.9001 15.2833 74.5999 15.2833 81.4583 11V11C88.3167 6.71669 97.0166 6.71669 103.875 11V11C110.733 15.2833 119.433 15.2833 126.292 11V11C133.15 6.71669 141.85 6.71669 148.708 11V11C155.567 15.2833 164.267 15.2833 171.125 11V11C177.983 6.71669 186.683 6.71669 193.542 11V11C200.4 15.2833 209.1 15.2833 215.958 11V11C222.817 6.71669 231.517 6.71669 238.375 11V11C245.233 15.2833 253.933 15.2833 260.792 11L272 4" stroke="#FFE2DE" stroke-width="8"/>
</svg>
