<svg width="18" height="18" viewBox="0 0 18 18" fill="none" xmlns="http://www.w3.org/2000/svg">
<mask id="mask0_343_140" style="mask-type:alpha" maskUnits="userSpaceOnUse" x="0" y="0" width="18" height="18">
<rect width="18" height="18" fill="#D9D9D9"/>
</mask>
<g mask="url(#mask0_343_140)">
<path d="M7.5 15.75C6.675 15.75 5.96875 15.4563 5.38125 14.8688C4.79375 14.2813 4.5 13.575 4.5 12.75C4.5 11.925 4.79375 11.2188 5.38125 10.6313C5.96875 10.0438 6.675 9.75 7.5 9.75C7.7875 9.75 8.053 9.78425 8.2965 9.85275C8.5405 9.92175 8.775 10.025 9 10.1625V2.25H13.5V5.25H10.5V12.75C10.5 13.575 10.2062 14.2813 9.61875 14.8688C9.03125 15.4563 8.325 15.75 7.5 15.75Z" fill="#FF7C7C"/>
</g>
</svg>
