<svg width="18" height="18" viewBox="0 0 18 18" fill="none" xmlns="http://www.w3.org/2000/svg">
<path d="M9.66752 13.545C9.48053 13.4775 9.27438 13.487 9.09437 13.5713C8.91436 13.6557 8.77521 13.8081 8.70751 13.995L8.16002 15.495C8.09247 15.682 8.10192 15.8882 8.18631 16.0682C8.27069 16.2482 8.42309 16.3873 8.61001 16.455C8.69176 16.4847 8.77805 16.4999 8.86501 16.5C9.01915 16.5 9.16952 16.4524 9.29567 16.3639C9.42182 16.2753 9.51761 16.15 9.57002 16.005L10.1175 14.505C10.1851 14.3181 10.1756 14.1119 10.0912 13.9319C10.0068 13.7519 9.85444 13.6127 9.66752 13.545V13.545ZM6.66752 13.545C6.48053 13.4775 6.27438 13.487 6.09437 13.5713C5.91436 13.6557 5.77521 13.8081 5.70752 13.995L5.16002 15.495C5.09247 15.682 5.10192 15.8882 5.18631 16.0682C5.27069 16.2482 5.42309 16.3873 5.61002 16.455C5.69176 16.4847 5.77805 16.4999 5.86502 16.5C6.01915 16.5 6.16952 16.4524 6.29567 16.3639C6.42182 16.2753 6.51761 16.15 6.57002 16.005L7.11751 14.505C7.18506 14.3181 7.17561 14.1119 7.09122 13.9319C7.00684 13.7519 6.85444 13.6127 6.66752 13.545V13.545ZM6.66752 8.29504C6.48053 8.2275 6.27438 8.23695 6.09437 8.32133C5.91436 8.40571 5.77521 8.55812 5.70752 8.74504L4.88252 10.995C4.84158 11.1083 4.8285 11.2297 4.8444 11.3491C4.86029 11.4684 4.90469 11.5822 4.97384 11.6808C5.04299 11.7793 5.13485 11.8598 5.24167 11.9154C5.34848 11.971 5.46711 12 5.58751 12C5.74165 12 5.89202 11.9524 6.01817 11.8639C6.14432 11.7753 6.24011 11.65 6.29252 11.505L7.11751 9.25504C7.18506 9.06806 7.17561 8.86191 7.09122 8.6819C7.00684 8.50189 6.85444 8.36274 6.66752 8.29504ZM9.66752 8.29504C9.48053 8.2275 9.27438 8.23695 9.09437 8.32133C8.91436 8.40571 8.77521 8.55812 8.70751 8.74504L7.88252 10.995C7.84158 11.1083 7.8285 11.2297 7.8444 11.3491C7.86029 11.4684 7.90469 11.5822 7.97384 11.6808C8.04299 11.7793 8.13485 11.8598 8.24167 11.9154C8.34848 11.971 8.46711 12 8.58751 12C8.74165 12 8.89202 11.9524 9.01817 11.8639C9.14432 11.7753 9.24011 11.65 9.29252 11.505L10.1175 9.25504C10.1851 9.06806 10.1756 8.86191 10.0912 8.6819C10.0068 8.50189 9.85444 8.36274 9.66752 8.29504V8.29504ZM13.815 4.66504C13.3568 3.61205 12.5659 2.73835 11.5636 2.17784C10.5613 1.61733 9.40281 1.40092 8.26574 1.56178C7.12867 1.72263 6.07571 2.25188 5.26821 3.06842C4.4607 3.88497 3.94321 4.94375 3.79501 6.08254C3.14058 6.24077 2.55839 6.61454 2.14211 7.14373C1.72584 7.67291 1.49968 8.32675 1.50001 9.00004C1.49868 9.42486 1.58758 9.84511 1.76083 10.233C1.93408 10.6209 2.18774 10.9675 2.50501 11.25C2.57803 11.3202 2.66449 11.3748 2.75919 11.4106C2.85388 11.4464 2.95485 11.4627 3.056 11.4585C3.15716 11.4542 3.25641 11.4296 3.34777 11.3859C3.43913 11.3423 3.52071 11.2806 3.58759 11.2046C3.65448 11.1286 3.70528 11.0398 3.73694 10.9437C3.7686 10.8475 3.78046 10.7459 3.77181 10.6451C3.76316 10.5442 3.73418 10.4461 3.68661 10.3567C3.63904 10.2674 3.57386 10.1886 3.49501 10.125C3.33774 9.98311 3.21232 9.80948 3.127 9.61557C3.04168 9.42166 2.9984 9.21188 3.00001 9.00004C3.00001 8.60222 3.15805 8.22069 3.43935 7.93938C3.72066 7.65808 4.10219 7.50004 4.50002 7.50004C4.69893 7.50004 4.88969 7.42103 5.03034 7.28037C5.171 7.13972 5.25002 6.94896 5.25002 6.75004C5.25193 5.863 5.56823 5.00536 6.14272 4.32948C6.7172 3.6536 7.51268 3.20326 8.38783 3.05845C9.26297 2.91364 10.1611 3.08375 10.9227 3.53855C11.6843 3.99335 12.26 4.7034 12.5475 5.54254C12.5904 5.67142 12.6675 5.78624 12.7705 5.87474C12.8735 5.96324 12.9986 6.02211 13.1325 6.04504C13.6531 6.13485 14.1256 6.40499 14.467 6.80814C14.8084 7.21129 14.9971 7.72174 15 8.25004C15.0115 8.80226 14.8132 9.33828 14.445 9.75004C14.3253 9.89915 14.267 10.0884 14.2821 10.279C14.2973 10.4696 14.3847 10.6473 14.5264 10.7756C14.6682 10.904 14.8536 10.9733 15.0448 10.9695C15.236 10.9657 15.4185 10.889 15.555 10.755C15.9681 10.283 16.2562 9.71479 16.3929 9.10255C16.5295 8.49031 16.5104 7.85357 16.3373 7.25062C16.1642 6.64767 15.8426 6.09779 15.4019 5.65132C14.9613 5.20485 14.4156 4.87605 13.815 4.69504V4.66504ZM12.6675 13.545C12.4805 13.4775 12.2744 13.487 12.0944 13.5713C11.9144 13.6557 11.7752 13.8081 11.7075 13.995L11.16 15.495C11.0925 15.682 11.1019 15.8882 11.1863 16.0682C11.2707 16.2482 11.4231 16.3873 11.61 16.455C11.6918 16.4847 11.778 16.4999 11.865 16.5C12.0192 16.5 12.1695 16.4524 12.2957 16.3639C12.4218 16.2753 12.5176 16.15 12.57 16.005L13.1175 14.505C13.1851 14.3181 13.1756 14.1119 13.0912 13.9319C13.0068 13.7519 12.8544 13.6127 12.6675 13.545ZM12.6675 8.29504C12.4805 8.2275 12.2744 8.23695 12.0944 8.32133C11.9144 8.40571 11.7752 8.55812 11.7075 8.74504L10.8825 10.995C10.8416 11.1083 10.8285 11.2297 10.8444 11.3491C10.8603 11.4684 10.9047 11.5822 10.9738 11.6808C11.043 11.7793 11.1349 11.8598 11.2417 11.9154C11.3485 11.971 11.4671 12 11.5875 12C11.7417 12 11.892 11.9524 12.0182 11.8639C12.1443 11.7753 12.2401 11.65 12.2925 11.505L13.1175 9.25504C13.1851 9.06806 13.1756 8.86191 13.0912 8.6819C13.0068 8.50189 12.8544 8.36274 12.6675 8.29504Z" fill="#FF7C7C"/>
</svg>
