<svg width="18" height="18" viewBox="0 0 18 18" fill="none" xmlns="http://www.w3.org/2000/svg">
<path d="M10.8751 11.94H10.2976L10.5901 11.4375C10.6896 11.2644 10.7162 11.0589 10.6641 10.8663C10.6121 10.6736 10.4857 10.5094 10.3126 10.41C10.1395 10.3105 9.93407 10.2839 9.74137 10.3359C9.54868 10.388 9.38455 10.5144 9.2851 10.6875L9.0001 11.19L8.7151 10.6875C8.61564 10.5144 8.45151 10.388 8.25882 10.3359C8.06612 10.2839 7.86065 10.3105 7.6876 10.41C7.51454 10.5094 7.38808 10.6736 7.33604 10.8663C7.284 11.0589 7.31064 11.2644 7.4101 11.4375L7.7026 11.94H7.1251C6.92618 11.94 6.73542 12.019 6.59477 12.1596C6.45411 12.3003 6.3751 12.4911 6.3751 12.69C6.3751 12.8889 6.45411 13.0797 6.59477 13.2203C6.73542 13.361 6.92618 13.44 7.1251 13.44H7.7026L7.4101 13.935C7.31064 14.108 7.284 14.3135 7.33604 14.5062C7.38808 14.6989 7.51454 14.863 7.6876 14.9625C7.86065 15.0619 8.06612 15.0886 8.25882 15.0365C8.45151 14.9845 8.61564 14.858 8.7151 14.685L9.0001 14.19L9.2851 14.685C9.38455 14.858 9.54868 14.9845 9.74137 15.0365C9.93407 15.0886 10.1395 15.0619 10.3126 14.9625C10.4857 14.863 10.6121 14.6989 10.6641 14.5062C10.7162 14.3135 10.6896 14.108 10.5901 13.935L10.2976 13.44H10.8751C11.074 13.44 11.2648 13.361 11.4054 13.2203C11.5461 13.0797 11.6251 12.8889 11.6251 12.69C11.6251 12.4911 11.5461 12.3003 11.4054 12.1596C11.2648 12.019 11.074 11.94 10.8751 11.94ZM13.8151 6.09748C13.3579 5.04476 12.5683 4.17088 11.5672 3.6096C10.566 3.04832 9.40858 2.83056 8.27194 2.98966C7.1353 3.14875 6.08211 3.67594 5.27358 4.49051C4.46504 5.30509 3.94572 6.36218 3.7951 7.49998C3.13689 7.65909 2.55188 8.0362 2.1352 8.56999C1.71852 9.10378 1.49468 9.76283 1.5001 10.44C1.50278 11.1479 1.7557 11.832 2.21411 12.3714C2.67253 12.9108 3.30692 13.2707 4.0051 13.3875H4.1251C4.32401 13.4034 4.5211 13.3396 4.673 13.2102C4.8249 13.0808 4.91918 12.8964 4.9351 12.6975C4.95101 12.4986 4.88725 12.3015 4.75785 12.1496C4.62845 11.9977 4.44401 11.9034 4.2451 11.8875C3.89291 11.8268 3.57397 11.6423 3.34572 11.3673C3.11746 11.0923 2.9949 10.7448 3.0001 10.3875C3.0001 9.98965 3.15813 9.60812 3.43944 9.32682C3.72074 9.04551 4.10227 8.88748 4.5001 8.88748C4.69901 8.88748 4.88977 8.80846 5.03043 8.66781C5.17108 8.52715 5.2501 8.33639 5.2501 8.13748C5.25201 7.25044 5.56831 6.39279 6.1428 5.71691C6.71729 5.04104 7.51276 4.59069 8.38791 4.44588C9.26305 4.30107 10.1612 4.47118 10.9228 4.92598C11.6844 5.38078 12.2601 6.09083 12.5476 6.92998C12.5916 7.05746 12.6692 7.17072 12.7721 7.25783C12.8751 7.34494 12.9996 7.40269 13.1326 7.42498C13.6101 7.51171 14.0468 7.75054 14.3775 8.10581C14.7082 8.46109 14.9151 8.91377 14.9674 9.3963C15.0197 9.87883 14.9146 10.3653 14.6677 10.7832C14.4208 11.2011 14.0455 11.5279 13.5976 11.715C13.4981 11.7451 13.4059 11.7956 13.327 11.8632C13.248 11.9308 13.184 12.0141 13.139 12.1078C13.0939 12.2015 13.0688 12.3035 13.0653 12.4074C13.0618 12.5113 13.0799 12.6148 13.1185 12.7114C13.1571 12.8079 13.2154 12.8953 13.2896 12.9681C13.3638 13.0409 13.4523 13.0975 13.5496 13.1343C13.6468 13.1711 13.7506 13.1872 13.8544 13.1818C13.9582 13.1763 14.0598 13.1493 14.1526 13.1025C14.8686 12.8083 15.476 12.2998 15.8915 11.6467C16.307 10.9936 16.5102 10.2279 16.4732 9.45468C16.4363 8.68149 16.1609 7.93868 15.685 7.3282C15.2091 6.71772 14.5559 6.26947 13.8151 6.04498V6.09748Z" fill="#FF7C7C"/>
</svg>
