<svg width="18" height="18" viewBox="0 0 18 18" fill="none" xmlns="http://www.w3.org/2000/svg">
<path d="M10.125 11.25H8.42248L9.50998 9.37496C9.55922 9.28928 9.59111 9.19473 9.60382 9.09672C9.61652 8.99871 9.6098 8.89915 9.58403 8.80374C9.55826 8.70833 9.51395 8.61893 9.45363 8.54064C9.39332 8.46235 9.31817 8.39671 9.23248 8.34746C9.14679 8.29822 9.05224 8.26633 8.95423 8.25363C8.85622 8.24092 8.75667 8.24764 8.66126 8.27341C8.56584 8.29918 8.47644 8.34349 8.39815 8.40381C8.31987 8.46413 8.25422 8.53928 8.20498 8.62496L6.47248 11.625C6.40665 11.739 6.372 11.8683 6.372 12C6.372 12.1316 6.40665 12.2609 6.47248 12.375C6.53856 12.4894 6.63371 12.5844 6.74829 12.6502C6.86287 12.7161 6.99282 12.7505 7.12498 12.75H8.82748L7.73998 14.625C7.64052 14.798 7.61389 15.0035 7.66593 15.1962C7.71797 15.3889 7.84442 15.553 8.01748 15.6525C8.19053 15.7519 8.39601 15.7786 8.5887 15.7265C8.78139 15.6745 8.94552 15.548 9.04498 15.375L10.7775 12.375C10.8433 12.2609 10.878 12.1316 10.878 12C10.878 11.8683 10.8433 11.739 10.7775 11.625C10.7114 11.5105 10.6163 11.4156 10.5017 11.3497C10.3871 11.2838 10.2571 11.2494 10.125 11.25ZM13.815 5.40746C13.3562 4.35432 12.5647 3.48071 11.5618 2.92058C10.5589 2.36045 9.39992 2.14472 8.26264 2.30646C7.12535 2.4682 6.0725 2.99848 5.26552 3.81601C4.45853 4.63353 3.94195 5.69318 3.79498 6.83246C3.07992 7.00371 2.45264 7.43159 2.03228 8.03486C1.61192 8.63812 1.42774 9.37476 1.51473 10.1049C1.60171 10.835 1.9538 11.5077 2.50413 11.9954C3.05446 12.483 3.7647 12.7515 4.49998 12.75C4.69889 12.75 4.88966 12.6709 5.03031 12.5303C5.17096 12.3896 5.24998 12.1989 5.24998 12C5.24998 11.8011 5.17096 11.6103 5.03031 11.4696C4.88966 11.329 4.69889 11.25 4.49998 11.25C4.10215 11.25 3.72062 11.0919 3.43932 10.8106C3.15801 10.5293 2.99998 10.1478 2.99998 9.74996C2.99998 9.35214 3.15801 8.97061 3.43932 8.6893C3.72062 8.408 4.10215 8.24996 4.49998 8.24996C4.69889 8.24996 4.88966 8.17095 5.03031 8.03029C5.17096 7.88964 5.24998 7.69888 5.24998 7.49996C5.25189 6.61292 5.56819 5.75528 6.14268 5.0794C6.71717 4.40352 7.51265 3.95318 8.38779 3.80837C9.26293 3.66356 10.1611 3.83367 10.9227 4.28847C11.6842 4.74327 12.2599 5.45332 12.5475 6.29246C12.5915 6.41995 12.669 6.53321 12.772 6.62032C12.8749 6.70743 12.9995 6.76517 13.1325 6.78746C13.6822 6.8889 14.1745 7.19136 14.5135 7.63591C14.8524 8.08047 15.0137 8.63528 14.966 9.19226C14.9182 9.74925 14.6649 10.2685 14.2552 10.6489C13.8456 11.0293 13.309 11.2436 12.75 11.25C12.5511 11.25 12.3603 11.329 12.2196 11.4696C12.079 11.6103 12 11.8011 12 12C12 12.1989 12.079 12.3896 12.2196 12.5303C12.3603 12.6709 12.5511 12.75 12.75 12.75C13.6495 12.7475 14.5182 12.4218 15.1975 11.8322C15.8769 11.2426 16.3217 10.4285 16.4508 9.53827C16.5799 8.64806 16.3848 7.7411 15.9009 6.98281C15.417 6.22451 14.6767 5.66541 13.815 5.40746Z" fill="#FF7C7C"/>
</svg>
